Coordinates
version=1
nRows=13
nColumns=40
inDegrees=yes

Units are S.I. units (second, meters, Newtons, ...)
If the header above contains a line with 'inDegrees', this indicates whether rotational values are in degrees (yes) or radians (no).

endheader
time	pelvis_tilt	pelvis_list	pelvis_rotation	pelvis_tx	pelvis_ty	pelvis_tz	hip_flexion_r	hip_adduction_r	hip_rotation_r	knee_angle_r	knee_angle_r_beta	ankle_angle_r	subtalar_angle_r	mtp_angle_r	hip_flexion_l	hip_adduction_l	hip_rotation_l	knee_angle_l	knee_angle_l_beta	ankle_angle_l	subtalar_angle_l	mtp_angle_l	lumbar_extension	lumbar_bending	lumbar_rotation	arm_flex_r	arm_add_r	arm_rot_r	elbow_flex_r	pro_sup_r	wrist_flex_r	wrist_dev_r	arm_flex_l	arm_add_l	arm_rot_l	elbow_flex_l	pro_sup_l	wrist_flex_l	wrist_dev_l
      7.47500000	    -86.55949043	     63.26345048	    -89.96638418	      0.83814018	      0.61149679	     -0.30804717	     45.00004538	     -9.99999997	      0.00000000	     60.00013216	      1.04719986	     -4.99999985	      0.00000000	      0.00000000	     45.00004538	     -9.99999997	      0.00000000	     60.00013216	      1.04719986	     -4.99999985	      0.00000000	      0.00000000	     14.45246943	     89.95228022	    -38.49807351	      3.11502112	    -31.75599337	     32.23156281	     88.08692228	     87.63368115	      0.00000000	      0.00000000	      0.96272871	    -25.87987801	     23.23989987	     78.15599856	     89.02905057	      0.00000000	      0.00000000
      7.48000000	    -86.62794627	     63.27157667	    -89.96628983	      0.83825028	      0.61155869	     -0.30805935	     45.00004538	     -9.99999997	      0.00000000	     60.00013216	      1.04719986	     -4.99999985	      0.00000000	      0.00000000	     45.00004538	     -9.99999997	      0.00000000	     60.00013216	      1.04719986	     -4.99999985	      0.00000000	      0.00000000	     14.46800809	     89.95163158	    -38.50138430	      3.13503133	    -31.72380495	     32.21355233	     88.04224732	     87.63047323	      0.00000000	      0.00000000	      0.94929953	    -25.87997960	     23.25146162	     78.16506878	     89.03219101	      0.00000000	      0.00000000
      7.48500000	    -86.71537319	     63.27955706	    -89.96620744	      0.83825133	      0.61163688	     -0.30803503	     45.00004537	     -9.99999997	      0.00000000	     60.00013216	      1.04719986	     -4.99999985	      0.00000000	      0.00000000	     45.00004537	     -9.99999997	      0.00000000	     60.00013216	      1.04719986	     -4.99999985	      0.00000000	      0.00000000	     14.48857229	     89.95143342	    -38.49967614	      3.13407396	    -31.71249250	     32.20503993	     87.98901425	     87.62762667	      0.00000000	      0.00000000	      0.92800488	    -25.85924312	     23.25796329	     78.15451278	     89.03319140	      0.00000000	      0.00000000
      7.49000000	    -86.80768534	     63.32161316	    -89.96624431	      0.83825981	      0.61185989	     -0.30800883	     45.00004534	     -9.99999997	      0.00000000	     60.00013217	      1.04719986	     -4.99999985	      0.00000000	      0.00000000	     45.00004534	     -9.99999997	      0.00000000	     60.00013217	      1.04719986	     -4.99999985	      0.00000000	      0.00000000	     14.54252367	     89.95149114	    -38.46507079	      3.09986752	    -31.72789576	     32.21360427	     87.87999193	     87.62344237	      0.00000000	      0.00000000	      0.95288852	    -25.74341576	     23.18890826	     77.95799615	     89.02987057	      0.00000000	      0.00000000
      7.49500000	    -86.87733897	     63.32782646	    -89.96613280	      0.83836094	      0.61195750	     -0.30802465	     45.00004533	     -9.99999997	      0.00000000	     60.00013217	      1.04719986	     -4.99999985	      0.00000000	      0.00000000	     45.00004533	     -9.99999997	      0.00000000	     60.00013217	      1.04719986	     -4.99999985	      0.00000000	      0.00000000	     14.55811816	     89.95099458	    -38.46839165	      3.11652028	    -31.68697055	     32.19990901	     87.83725810	     87.62069160	      0.00000000	      0.00000000	      0.93418747	    -25.73563431	     23.20481761	     77.96681889	     89.03320990	      0.00000000	      0.00000000
      7.50000000	    -86.97553166	     63.34199777	    -89.96606434	      0.83827604	      0.61208191	     -0.30798758	     45.00004532	     -9.99999997	      0.00000000	     60.00013217	      1.04719986	     -4.99999985	      0.00000000	      0.00000000	     45.00004532	     -9.99999997	      0.00000000	     60.00013217	      1.04719986	     -4.99999985	      0.00000000	      0.00000000	     14.58174222	     89.95085252	    -38.46371489	      3.10109121	    -31.67547810	     32.19562620	     87.77887220	     87.61834249	      0.00000000	      0.00000000	      0.90035981	    -25.70742907	     23.21367774	     77.94786138	     89.03359743	      0.00000000	      0.00000000
      7.50500000	    -87.05907259	     63.38300991	    -89.96611846	      0.83835553	      0.61231255	     -0.30797631	     45.00004528	     -9.99999997	      0.00000000	     60.00013218	      1.04719986	     -4.99999985	      0.00000000	      0.00000000	     45.00004528	     -9.99999997	      0.00000000	     60.00013218	      1.04719986	     -4.99999985	      0.00000000	      0.00000000	     14.63414003	     89.95080967	    -38.43104777	      3.06871219	    -31.66950047	     32.19434527	     87.64698430	     87.61171824	      0.00000000	      0.00000000	      0.94455898	    -25.58300821	     23.15246127	     77.72976817	     89.03362452	      0.00000000	      0.00000000
      7.51000000	    -87.13715685	     63.39547733	    -89.96597264	      0.83839869	      0.61240780	     -0.30797567	     45.00004528	     -9.99999997	      0.00000000	     60.00013218	      1.04719986	     -4.99999985	      0.00000000	      0.00000000	     45.00004528	     -9.99999997	      0.00000000	     60.00013218	      1.04719986	     -4.99999985	      0.00000000	      0.00000000	     14.65000794	     89.95039550	    -38.43420383	      3.08216348	    -31.63907985	     32.17453351	     87.60377102	     87.60883211	      0.00000000	      0.00000000	      0.91726552	    -25.57900629	     23.16754990	     77.73869096	     89.03664756	      0.00000000	      0.00000000
      7.51500000	    -87.22675465	     63.41635864	    -89.96598261	      0.83839167	      0.61261171	     -0.30789337	     45.00004524	     -9.99999997	      0.00000000	     60.00013218	      1.04719986	     -4.99999985	      0.00000000	      0.00000000	     45.00004524	     -9.99999997	      0.00000000	     60.00013218	      1.04719986	     -4.99999985	      0.00000000	      0.00000000	     14.69019346	     89.95038729	    -38.41401251	      3.03945696	    -31.64319666	     32.15507136	     87.51299695	     87.60418186	      0.00000000	      0.00000000	      0.92055963	    -25.47960042	     23.11401444	     77.60044108	     89.03538756	      0.00000000	      0.00000000
      7.52000000	    -87.31260467	     63.42704915	    -89.96588371	      0.83838035	      0.61273342	     -0.30788352	     45.00004524	     -9.99999997	      0.00000000	     60.00013218	      1.04719986	     -4.99999985	      0.00000000	      0.00000000	     45.00004524	     -9.99999997	      0.00000000	     60.00013218	      1.04719986	     -4.99999985	      0.00000000	      0.00000000	     14.70614236	     89.94999971	    -38.41717525	      3.04175080	    -31.60959904	     32.14013816	     87.46745549	     87.60134335	      0.00000000	      0.00000000	      0.88735495	    -25.46642385	     23.12748398	     77.60828115	     89.03768825	      0.00000000	      0.00000000
      7.52500000	    -87.39468208	     63.43258367	    -89.96581608	      0.83841099	      0.61285135	     -0.30783292	     45.00004523	     -9.99999997	      0.00000000	     60.00013218	      1.04719986	     -4.99999985	      0.00000000	      0.00000000	     45.00004523	     -9.99999997	      0.00000000	     60.00013218	      1.04719986	     -4.99999985	      0.00000000	      0.00000000	     14.73160120	     89.94969497	    -38.41078010	      3.02732798	    -31.58676797	     32.12745723	     87.40914431	     87.59810578	      0.00000000	      0.00000000	      0.86555341	    -25.41673131	     23.11686876	     77.59713904	     89.03742118	      0.00000000	      0.00000000
      7.53000000	    -87.47966700	     63.44240914	    -89.96572789	      0.83836267	      0.61299725	     -0.30777713	     45.00004522	     -9.99999997	      0.00000000	     60.00013219	      1.04719986	     -4.99999985	      0.00000000	      0.00000000	     45.00004522	     -9.99999997	      0.00000000	     60.00013219	      1.04719986	     -4.99999985	      0.00000000	      0.00000000	     14.75628033	     89.94939346	    -38.40525352	      2.99853725	    -31.57651560	     32.11151439	     87.34538378	     87.59439244	      0.00000000	      0.00000000	      0.84259270	    -25.37613038	     23.09054454	     77.56626340	     89.03836778	      0.00000000	      0.00000000
      7.53500000	    -87.56870034	     63.46225137	    -89.96566342	      0.83834742	      0.61314966	     -0.30774870	     45.00004521	     -9.99999997	      0.00000000	     60.00013219	      1.04719986	     -4.99999985	      0.00000000	      0.00000000	     45.00004521	     -9.99999997	      0.00000000	     60.00013219	      1.04719986	     -4.99999985	      0.00000000	      0.00000000	     14.78104708	     89.94914714	    -38.39978683	      2.98086431	    -31.52868792	     32.08891838	     87.28747973	     87.59141437	      0.00000000	      0.00000000	      0.81830973	    -25.33079957	     23.06416084	     77.52946262	     89.03895371	      0.00000000	      0.00000000
